<svg width="18" height="19" viewBox="0 0 18 19" fill="none" xmlns="http://www.w3.org/2000/svg">
<path d="M9.38672 4.92578C9.28125 4.82031 9.14062 4.75 9 4.75C8.82422 4.75 8.68359 4.82031 8.57812 4.92578L5.20312 8.30078C4.99219 8.51172 4.99219 8.89844 5.20312 9.10938C5.41406 9.32031 5.80078 9.32031 6.01172 9.10938L8.4375 6.68359V13.1875C8.4375 13.5039 8.68359 13.75 9 13.75C9.28125 13.75 9.5625 13.5039 9.5625 13.1875V6.68359L11.9531 9.10938C12.1641 9.32031 12.5508 9.32031 12.7617 9.10938C12.9727 8.89844 12.9727 8.51172 12.7617 8.30078L9.38672 4.92578ZM9 0.25C4.00781 0.25 0 4.29297 0 9.25C0 14.2422 4.00781 18.25 9 18.25C13.957 18.25 18 14.2422 18 9.25C18 4.29297 13.957 0.25 9 0.25ZM9 17.125C4.64062 17.125 1.125 13.6094 1.125 9.25C1.125 4.92578 4.64062 1.375 9 1.375C13.3242 1.375 16.875 4.92578 16.875 9.25C16.875 13.6094 13.3242 17.125 9 17.125Z" fill="url(#paint0_linear_3189_673)"/>
<defs>
<linearGradient id="paint0_linear_3189_673" x1="-3" y1="-3" x2="-3" y2="21" gradientUnits="userSpaceOnUse">
<stop stop-color="#5EBBFF"/>
<stop offset="1" stop-color="#A174FF"/>
</linearGradient>
</defs>
</svg>
