<svg width="40" height="40" viewBox="0 0 40 40" fill="none" xmlns="http://www.w3.org/2000/svg">
<circle cx="20" cy="20" r="19.5" transform="rotate(90 20 20)" stroke="#4C65AE"/>
<path d="M18.9375 14.0625C18.625 14.375 18.6562 14.8437 18.9375 15.1562L22.7187 18.75L13.75 18.75C13.3125 18.75 13 19.0625 13 19.5L13 20.5C13 20.9062 13.3125 21.25 13.75 21.25L22.7187 21.25L18.9687 24.8125C18.6562 25.125 18.6562 25.5937 18.9375 25.9062L19.625 26.5937C19.9375 26.875 20.4062 26.875 20.6875 26.5937L26.7812 20.5C27.0625 20.2187 27.0625 19.75 26.7812 19.4687L20.6875 13.375C20.4062 13.0937 19.9375 13.0937 19.625 13.375L18.9375 14.0625Z" fill="#4C65AE"/>
</svg>
