<svg width="40" height="40" viewBox="0 0 40 40" fill="none" xmlns="http://www.w3.org/2000/svg">
<circle cx="20" cy="20" r="19.5" transform="rotate(90 20 20)" stroke="#4C65AE"/>
<path d="M21.0312 25.9062C21.3437 25.5937 21.3125 25.125 21.0312 24.8125L17.25 21.25L26.25 21.25C26.6562 21.25 27 20.9062 27 20.5L27 19.5C27 19.0625 26.6562 18.75 26.25 18.75L17.25 18.75L21.0312 15.1562C21.3125 14.8437 21.3437 14.375 21.0312 14.0625L20.3437 13.375C20.0625 13.0937 19.5625 13.0937 19.2812 13.375L13.2187 19.4687C12.9062 19.75 12.9062 20.2187 13.2187 20.5312L19.2812 26.5937C19.5625 26.875 20.0312 26.875 20.3437 26.5937L21.0312 25.9062Z" fill="#4C65AE"/>
</svg>
